<?xml version="1.0" encoding="UTF-8" standalone="no"?>
<!-- Created with Inkscape (http://www.inkscape.org/) -->

<svg
   xmlns:dc="http://purl.org/dc/elements/1.1/"
   xmlns:cc="http://creativecommons.org/ns#"
   xmlns:rdf="http://www.w3.org/1999/02/22-rdf-syntax-ns#"
   xmlns:svg="http://www.w3.org/2000/svg"
   xmlns="http://www.w3.org/2000/svg"
   xmlns:sodipodi="http://sodipodi.sourceforge.net/DTD/sodipodi-0.dtd"
   xmlns:inkscape="http://www.inkscape.org/namespaces/inkscape"
   id="svg3336"
   version="1.1"
   inkscape:version="0.91 r13725"
   xml:space="preserve"
   width="354"
   height="433"
   viewBox="0 0 354 433"
   sodipodi:docname="logo.svg"><metadata
     id="metadata3342"><rdf:RDF><cc:Work
         rdf:about=""><dc:format>image/svg+xml</dc:format><dc:type
           rdf:resource="http://purl.org/dc/dcmitype/StillImage" /><dc:title></dc:title></cc:Work></rdf:RDF></metadata><defs
     id="defs3340"><clipPath
       clipPathUnits="userSpaceOnUse"
       id="clipPath3350"><path
         d="M 0,400 550,400 550,0 0,0 0,400 Z"
         id="path3352"
         inkscape:connector-curvature="0" /></clipPath></defs><sodipodi:namedview
     pagecolor="#fffdff"
     bordercolor="#666666"
     borderopacity="1"
     objecttolerance="10"
     gridtolerance="10"
     guidetolerance="10"
     inkscape:pageopacity="0"
     inkscape:pageshadow="2"
     inkscape:window-width="1366"
     inkscape:window-height="705"
     id="namedview3338"
     showgrid="false"
     inkscape:zoom="1.072"
     inkscape:cx="243.23867"
     inkscape:cy="202.75414"
     inkscape:window-x="-8"
     inkscape:window-y="-8"
     inkscape:window-maximized="1"
     inkscape:current-layer="g3344"><inkscape:grid
       type="xygrid"
       id="grid3377" /></sodipodi:namedview><g
     id="g3344"
     inkscape:groupmode="layer"
     inkscape:label="logo37"
     transform="matrix(1.25,0,0,-1.25,0,433)"><g
       id="g3371"
       transform="matrix(0.90395932,-0.42761846,0.42761846,0.90395932,-182.44738,114.43269)"><g
         id="g3379"><g
           id="g3354"
           transform="translate(354.00473,325.47528)"><path
             d="M 0,0 C 0,16.567 -5.867,30.717 -17.6,42.45 -29.133,53.983 -43,59.85 -59.2,60.05 -59.967,60.017 -60.75,60 -61.55,60 c -0.833,0 -1.667,0.017 -2.5,0.05 -16.2,-0.2 -30.067,-6.067 -41.6,-17.6 -11.733,-11.733 -17.6,-25.883 -17.6,-42.45 0,-14.467 3.917,-27.783 11.75,-39.95 10.6,2.633 21.733,3.95 33.4,3.95 21.6,0 41.333,-4.5 59.2,-13.5 1.233,1.467 2.4,2.917 3.5,4.35 C -5.133,-31.617 0,-16.567 0,0 m -9.75,-192.9 c 1.3,3.7 1.1,7.317 -0.6,10.85 -1.667,3.533 -4.367,5.983 -8.1,7.35 -3.7,1.3 -7.333,1.117 -10.9,-0.55 -3.533,-1.7 -5.967,-4.4 -7.3,-8.1 -1.267,-3.767 -1.067,-7.417 0.6,-10.95 1.7,-3.533 4.4,-5.95 8.1,-7.25 3.733,-1.367 7.367,-1.2 10.9,0.5 3.567,1.667 6,4.383 7.3,8.15 m -83.35,-20.45 c -2.167,-1.033 -3.667,-2.683 -4.5,-4.95 -0.8,-2.3 -0.683,-4.533 0.35,-6.7 1.033,-2.167 2.683,-3.65 4.95,-4.45 2.3,-0.833 4.533,-0.733 6.7,0.3 l 32.5,15.5 c 2.167,1.033 3.65,2.7 4.45,5 0.833,2.267 0.733,4.483 -0.3,6.65 -1.033,2.167 -2.7,3.667 -5,4.5 -2.267,0.8 -4.483,0.683 -6.65,-0.35 l -32.5,-15.5 M -129,-249.8 c 3.733,-1.333 7.35,-1.15 10.85,0.55 3.567,1.667 6.017,4.383 7.35,8.15 1.3,3.7 1.1,7.333 -0.6,10.9 -1.667,3.533 -4.35,5.967 -8.05,7.3 -3.733,1.267 -7.383,1.067 -10.95,-0.6 -3.5,-1.7 -5.917,-4.4 -7.25,-8.1 -1.333,-3.733 -1.167,-7.367 0.5,-10.9 1.7,-3.567 4.417,-6 8.15,-7.3 m 123.05,120.45 c 1.033,-2.167 1.133,-4.383 0.3,-6.65 -0.8,-2.3 -2.3,-3.983 -4.5,-5.05 l -11.85,-5.65 -0.05,-0.1 c 0.033,0 0.067,-0.017 0.1,-0.05 5.333,1.833 10.75,1.783 16.25,-0.15 6.567,-2.333 11.333,-6.617 14.3,-12.85 l 10.3,-21.65 c 2.967,-6.233 3.283,-12.6 0.95,-19.1 -2.067,-5.9 -5.733,-10.333 -11,-13.3 l 3.6,-7.55 c 0.233,-0.533 0.433,-1.067 0.6,-1.6 1.067,-3.333 0.983,-6.717 -0.25,-10.15 -1.467,-4.2 -4.183,-7.25 -8.15,-9.15 -4,-1.9 -8.1,-2.1 -12.3,-0.6 -3.433,1.2 -6.1,3.267 -8,6.2 -0.3,0.467 -0.583,0.967 -0.85,1.5 l -3.6,7.5 -77.55,-36.95 3.6,-7.55 c 0.2,-0.533 0.4,-1.05 0.6,-1.55 1.1,-3.333 1,-6.717 -0.3,-10.15 -1.433,-4.233 -4.15,-7.3 -8.15,-9.2 -4,-1.9 -8.1,-2.1 -12.3,-0.6 -3.467,1.2 -6.15,3.267 -8.05,6.2 -0.267,0.467 -0.533,0.95 -0.8,1.45 l -3.6,7.55 -0.1,0.65 c -4.433,-0.967 -8.95,-0.65 -13.55,0.95 -6.5,2.3 -11.233,6.567 -14.2,12.8 l -10.3,21.65 c -2.967,6.233 -3.317,12.617 -1.05,19.15 1.367,3.767 3.383,6.933 6.05,9.5 l -0.95,1.05 -6.9,-3.3 c -2.2,-1.033 -4.433,-1.133 -6.7,-0.3 -2.3,0.767 -3.967,2.233 -5,4.4 -1.067,2.2 -1.183,4.467 -0.35,6.8 0.8,2.3 2.3,3.967 4.5,5 l 14.45,6.9 c -3.633,16.9 -4.867,27.867 -3.7,32.9 0.067,0.333 0.15,0.65 0.25,0.95 2.333,6.533 6.6,11.283 12.8,14.25 l 75,35.7 c 4.233,2 8.517,2.8 12.85,2.4 2.067,-0.167 4.15,-0.617 6.25,-1.35 4.567,-1.633 12.65,-9.683 24.25,-24.15 0.033,-0.033 0.05,-0.067 0.05,-0.1 l 0.85,0.7 14.45,6.85 c 2.2,1.067 4.433,1.183 6.7,0.35 2.3,-0.833 3.983,-2.35 5.05,-4.55 m 21.7,54.5 c -10.667,10.633 -22.217,19.083 -34.65,25.35 -8.928,-10.437 -21.762,-21.104 -38.5,-32 l -4.7,-22.45 -3.9,22.55 c -18.977,12.397 -32.927,24.481 -41.85,36.25 -1.3,1.7 -2.517,3.433 -3.65,5.2 -22.633,-5.6 -42.783,-17.233 -60.45,-34.9 -25.9,-25.9 -38.85,-57.183 -38.85,-93.85 0,-36.667 12.95,-67.933 38.85,-93.8 16.733,-16.767 35.717,-28.117 56.95,-34.05 11.633,-3.233 23.933,-4.85 36.9,-4.85 36.633,0 67.917,12.967 93.85,38.9 25.9,25.867 38.85,57.133 38.85,93.8 0,36.667 -12.95,67.95 -38.85,93.85"
             style="fill:#ffffff;fill-opacity:1;fill-rule:nonzero;stroke:none"
             id="path3356"
             inkscape:connector-curvature="0" /></g><g
           id="g3358"
           transform="translate(256.72786,63.014093)"><path
             d="m 0,0 -23.5,-11.25 c -1.867,-0.867 -3.733,-1.517 -5.6,-1.95 m -33.05,64.05 c 0.967,0.967 2.05,1.85 3.25,2.65 0,0.033 0.017,0.05 0.05,0.05 M 106.5,50.8 104.7,49.9 77.55,36.95 M -63.1,71.4 c 1.133,-5.3 2.55,-11.25 4.25,-17.85 1.067,0.733 2.233,1.4 3.5,2 l 128.2,61.15 c 0.8,0.367 1.583,0.7 2.35,1 m 0.4,0.2 -0.05,0.05 -0.35,-0.25 c 0.167,0.033 0.333,0.083 0.5,0.15 M -63.1,51.9 -70,48.6 c -2.2,-1.033 -4.433,-1.133 -6.7,-0.3 -2.3,0.767 -3.967,2.233 -5,4.4 -1.067,2.2 -1.183,4.467 -0.35,6.8 0.8,2.3 2.3,3.967 4.5,5 l 14.45,6.9 c -3.633,16.9 -4.867,27.867 -3.7,32.9 0.067,0.333 0.15,0.65 0.25,0.95 2.333,6.533 6.6,11.283 12.8,14.25 l 75,35.7 c 4.233,2 8.517,2.8 12.85,2.4 2.067,-0.167 4.15,-0.617 6.25,-1.35 4.567,-1.633 12.65,-9.683 24.25,-24.15 0.033,-0.033 0.05,-0.067 0.05,-0.1 M -29.1,-13.2 c -4.433,-0.967 -8.95,-0.65 -13.55,0.95 -6.5,2.3 -11.233,6.567 -14.2,12.8 l -10.3,21.65 c -2.967,6.233 -3.317,12.617 -1.05,19.15 1.367,3.767 3.383,6.933 6.05,9.5 M 75.6,117.9 c 0.033,0 0.067,-0.017 0.1,-0.05 5.333,1.833 10.75,1.783 16.25,-0.15 6.567,-2.333 11.333,-6.617 14.3,-12.85 l 10.3,-21.65 c 2.967,-6.233 3.283,-12.6 0.95,-19.1 -2.067,-5.9 -5.733,-10.333 -11,-13.3 l 3.6,-7.55 c 0.233,-0.533 0.433,-1.067 0.6,-1.6 1.067,-3.333 0.983,-6.717 -0.25,-10.15 -1.467,-4.2 -4.183,-7.25 -8.15,-9.15 -4,-1.9 -8.1,-2.1 -12.3,-0.6 -3.433,1.2 -6.1,3.267 -8,6.2 -0.3,0.467 -0.583,0.967 -0.85,1.5 l -3.6,7.5 L 0,0 3.6,-7.55 C 3.8,-8.083 4,-8.6 4.2,-9.1 c 1.1,-3.333 1,-6.717 -0.3,-10.15 -1.433,-4.233 -4.15,-7.3 -8.15,-9.2 -4,-1.9 -8.1,-2.1 -12.3,-0.6 -3.467,1.2 -6.15,3.267 -8.05,6.2 -0.267,0.467 -0.533,0.95 -0.8,1.45 l -3.6,7.55 M 64.65,132 c 3.333,-4.133 6.967,-8.817 10.9,-14.05 l 0.1,0.05 m 0,0 11.85,5.65 c 2.2,1.067 3.7,2.75 4.5,5.05 0.833,2.267 0.733,4.483 -0.3,6.65 -1.067,2.2 -2.75,3.717 -5.05,4.55 -2.267,0.833 -4.5,0.717 -6.7,-0.35 L 65.5,132.7"
             style="fill:none;stroke:#ffffff;stroke-width:8;stroke-linecap:round;stroke-linejoin:round;stroke-miterlimit:4;stroke-dasharray:none;stroke-opacity:1"
             id="path3360"
             inkscape:connector-curvature="0" /></g></g></g></g></svg>